<?xml version="1.0" encoding="UTF-8"?>
<svg width="16px" height="16px" viewBox="0 0 16 16" version="1.1" xmlns="http://www.w3.org/2000/svg" xmlns:xlink="http://www.w3.org/1999/xlink">
    <!-- Generator: Sketch 49.1 (51147) - http://www.bohemiancoding.com/sketch -->
    <title>交易@2x</title>
    <desc>Created with Sketch.</desc>
    <defs>
        <linearGradient x1="0%" y1="23.1848299%" x2="100%" y2="76.2214157%" id="linearGradient-1">
            <stop stop-color="#FB7E89" offset="0%"></stop>
            <stop stop-color="#F64851" offset="100%"></stop>
        </linearGradient>
    </defs>
    <g id="交易（两融）" stroke="none" stroke-width="1" fill="none" fill-rule="evenodd">
        <g id="两融--未登录" transform="translate(-15.000000, -485.000000)">
            <g id="交易" transform="translate(15.000000, 485.000000)">
                <path d="M8,1.27273258e-15 C3.58914078,1.27273258e-15 0,3.58914078 0,8 C0,12.4108592 3.58914078,16 8,16 C12.4108592,16 16,12.4108592 16,8 C16,3.58914078 12.4108592,0 8,1.27273258e-15 Z" id="Path" fill="url(#linearGradient-1)"></path>
                <g id="搜索-4" transform="translate(3.500000, 3.500000)" fill="#FFFFFF" fill-rule="nonzero">
                    <path d="M3.89951056,7.80032324 C1.75094685,7.80032324 0.00283027055,6.05220666 0.00283027055,3.90365254 C0.00283027055,1.75508883 1.75093727,0.00697224662 3.89951056,0.00697224662 C6.04807427,0.00697224662 7.79618127,1.75509842 7.79618127,3.90365254 C7.79618127,6.05220666 6.04807427,7.80032324 3.89951056,7.80032324 Z M3.89951056,1.20593679 C2.41190551,1.20593679 1.20179481,2.41606667 1.20179481,3.90365255 C1.20179481,5.39123842 2.41190551,6.60133955 3.89951056,6.60133955 C5.38709643,6.60133955 6.59719756,5.39124801 6.59719756,3.90365255 C6.59719756,2.41605708 5.38709643,1.20593679 3.89951056,1.20593679 Z" id="Shape"></path>
                    <path d="M8.99516498,8.39982947 C8.99516498,8.73116657 8.72643039,8.99929737 8.39566833,8.99929737 C8.06486793,8.99929737 7.79618126,8.73116657 7.79618126,8.39982947 C7.79618126,8.06847321 8.06487751,7.80032324 8.39566833,7.80032324 C8.72643997,7.80032324 8.99516498,8.06847322 8.99516498,8.39982947 Z" id="Shape"></path>
                    <polygon id="Shape" points="6.98616326 6.14247522 8.78460438 7.94091634 7.93689787 8.78862284 6.13845675 6.99018173"></polygon>
                </g>
            </g>
        </g>
    </g>
</svg>