<?xml version="1.0" encoding="UTF-8"?>
<svg width="16px" height="16px" viewBox="0 0 16 16" version="1.1" xmlns="http://www.w3.org/2000/svg" xmlns:xlink="http://www.w3.org/1999/xlink">
    <!-- Generator: Sketch 49.1 (51147) - http://www.bohemiancoding.com/sketch -->
    <title>Combined Shape</title>
    <desc>Created with Sketch.</desc>
    <defs>
        <linearGradient x1="0%" y1="23.1848299%" x2="100%" y2="76.2214157%" id="linearGradient-1">
            <stop stop-color="#FB7E89" offset="0%"></stop>
            <stop stop-color="#F64851" offset="100%"></stop>
        </linearGradient>
    </defs>
    <g id="Symbols" stroke="none" stroke-width="1" fill="none" fill-rule="evenodd">
        <g id="交易列表" transform="translate(-15.000000, -10.000000)" fill="url(#linearGradient-1)">
            <g id="常用" transform="translate(15.000000, 10.000000)">
                <path d="M8,1.27273258e-15 C12.4108592,0 16,3.58914078 16,8 C16,12.4108592 12.4108592,16 8,16 C3.58914078,16 0,12.4108592 0,8 C0,3.58914078 3.58914078,1.27273258e-15 8,1.27273258e-15 Z M4.30769231,5 C4.13775854,5 4,5.21368228 4,5.47727273 C4,5.74086318 4.13775854,5.95454545 4.30769231,5.95454545 L11.6923077,5.95454545 C11.8622415,5.95454545 12,5.74086318 12,5.47727273 C12,5.21368228 11.8622415,5 11.6923077,5 L4.30769231,5 Z M4.30769231,8.18181818 C4.13775854,8.18181818 4,8.39550046 4,8.65909091 C4,8.92268136 4.13775854,9.13636364 4.30769231,9.13636364 L11.6923077,9.13636364 C11.8622415,9.13636364 12,8.92268136 12,8.65909091 C12,8.39550046 11.8622415,8.18181818 11.6923077,8.18181818 L4.30769231,8.18181818 Z M4.30769231,11.3636364 C4.13775854,11.3636364 4,11.5773186 4,11.8409091 C4,12.1044995 4.13775854,12.3181818 4.30769231,12.3181818 L11.6923077,12.3181818 C11.8622415,12.3181818 12,12.1044995 12,11.8409091 C12,11.5773186 11.8622415,11.3636364 11.6923077,11.3636364 L4.30769231,11.3636364 Z" id="Combined-Shape"></path>
            </g>
        </g>
    </g>
</svg>