<?xml version="1.0" encoding="UTF-8"?>
<svg width="16px" height="16px" viewBox="0 0 16 16" version="1.1" xmlns="http://www.w3.org/2000/svg" xmlns:xlink="http://www.w3.org/1999/xlink">
    <!-- Generator: Sketch 49.1 (51147) - http://www.bohemiancoding.com/sketch -->
    <title>Combined Shape</title>
    <desc>Created with Sketch.</desc>
    <defs>
        <linearGradient x1="0%" y1="23.1848299%" x2="100%" y2="76.2214157%" id="linearGradient-1">
            <stop stop-color="#FB7E89" offset="0%"></stop>
            <stop stop-color="#F64851" offset="100%"></stop>
        </linearGradient>
    </defs>
    <g id="交易+个人" stroke="none" stroke-width="1" fill="none" fill-rule="evenodd">
        <g id="普通交易--未登录" transform="translate(-15.000000, -964.000000)" fill="url(#linearGradient-1)">
            <g id="8" transform="translate(0.000000, 954.000000)">
                <g id="其他" transform="translate(15.000000, 10.000000)">
                    <path d="M8,1.27273258e-15 C12.4108592,0 16,3.58914078 16,8 C16,12.4108592 12.4108592,16 8,16 C3.58914078,16 0,12.4108592 0,8 C0,3.58914078 3.58914078,1.27273258e-15 8,1.27273258e-15 Z M5.45589286,8.22785714 C5.45589286,7.54964286 4.90625,7 4.22803571,7 C3.54982143,7 3,7.54964286 3,8.22785714 C3,8.90589286 3.54982143,9.45589286 4.22803571,9.45589286 C4.90625,9.45589286 5.45589286,8.90589286 5.45589286,8.22785714 Z M8.00785714,7 C7.32964286,7 6.78,7.54964286 6.78,8.22785714 C6.78,8.90589286 7.32964286,9.45589286 8.00785714,9.45589286 C8.68625,9.45589286 9.23571429,8.90589286 9.23571429,8.22785714 C9.23589286,7.54964286 8.68642857,7 8.00785714,7 Z M11.7721429,7 C11.0935714,7 10.5441071,7.54964286 10.5441071,8.22785714 C10.5441071,8.90589286 11.0935714,9.45589286 11.7721429,9.45589286 C12.4501786,9.45589286 13,8.90589286 13,8.22785714 C13,7.54964286 12.4501786,7 11.7721429,7 Z" id="Combined-Shape"></path>
                </g>
            </g>
        </g>
    </g>
</svg>