<?xml version="1.0" encoding="UTF-8"?>
<svg width="16px" height="16px" viewBox="0 0 16 16" version="1.1" xmlns="http://www.w3.org/2000/svg" xmlns:xlink="http://www.w3.org/1999/xlink">
    <!-- Generator: Sketch 49.1 (51147) - http://www.bohemiancoding.com/sketch -->
    <title>Combined Shape</title>
    <desc>Created with Sketch.</desc>
    <defs>
        <linearGradient x1="0%" y1="23.1848299%" x2="100%" y2="76.2214157%" id="linearGradient-1">
            <stop stop-color="#FB7E89" offset="0%"></stop>
            <stop stop-color="#F64851" offset="100%"></stop>
        </linearGradient>
    </defs>
    <g id="交易+个人" stroke="none" stroke-width="1" fill="none" fill-rule="evenodd">
        <g id="普通交易--未登录" transform="translate(-15.000000, -644.000000)" fill="url(#linearGradient-1)">
            <g id="6" transform="translate(0.000000, 634.000000)">
                <path d="M23,10 C27.4108592,10 31,13.5891408 31,18 C31,22.4108592 27.4108592,26 23,26 C18.5891408,26 15,22.4108592 15,18 C15,13.5891408 18.5891408,10 23,10 Z M24.8280851,15.5963121 C24.7191489,15.541844 24.7009929,15.4147518 24.773617,15.3239716 C24.8280851,15.2513475 24.8825532,15.1787234 24.9188652,15.1060993 C25.2638298,14.5069503 25.2456738,13.8170213 24.8462411,13.5991489 C24.755461,13.5446809 24.6646809,13.5265248 24.5557447,13.5265248 C24.4468085,13.5265248 24.3560284,13.5446808 24.2470922,13.5991489 C24.2289362,13.617305 24.1926241,13.617305 24.1744681,13.617305 C24.12,13.617305 24.0655319,13.5991489 24.0292199,13.5446809 C23.7931915,13.2178723 23.4119149,13 22.9761702,13 C22.5404255,13 22.1591489,13.2178723 21.9231206,13.5446809 C21.8868085,13.5991489 21.8323404,13.617305 21.7778723,13.617305 C21.7597163,13.617305 21.7234043,13.617305 21.7052482,13.5991489 C21.6144681,13.5265248 21.5055319,13.5083688 21.4147518,13.5083688 C21.3058156,13.5083688 21.2150355,13.5265248 21.1242553,13.5809929 C20.7429787,13.7988652 20.7066667,14.4887943 21.0516312,15.0879433 C21.1060993,15.1605674 21.1424113,15.2513475 21.1968794,15.3058156 C21.2695035,15.3965957 21.2513475,15.5236879 21.1424113,15.578156 C19.8714894,16.2499291 19,17.5934752 19,19.1367376 C19,19.9174468 19.2541844,20.6436879 19.671773,21.2428369 C19.8714894,21.5151773 20.1982979,21.6785816 20.5432624,21.6785816 L25.4453901,21.6785816 C25.7903546,21.6785816 26.1171631,21.5151773 26.3168794,21.2428369 C26.7344681,20.6436879 26.9886525,19.9174468 26.9886525,19.1367376 C26.9886525,17.5934752 26.1171631,16.2499291 24.8280851,15.5963121 Z M22.9943262,20.4076596 C22.9943262,19.409078 22.177305,18.5920567 21.1787234,18.5920567 C22.177305,18.5920567 22.9943262,17.7750355 22.9943262,16.7764539 C22.9943262,17.7750355 23.8113475,18.5920567 24.8099291,18.5920567 C23.8113475,18.5920567 22.9943262,19.409078 22.9943262,20.4076596 Z" id="Combined-Shape"></path>
            </g>
        </g>
    </g>
</svg>