<?xml version="1.0" encoding="UTF-8"?>
<svg width="14px" height="14px" viewBox="0 0 14 14" version="1.1" xmlns="http://www.w3.org/2000/svg" xmlns:xlink="http://www.w3.org/1999/xlink">
    <!-- Generator: Sketch 49.3 (51167) - http://www.bohemiancoding.com/sketch -->
    <title>广播@2x</title>
    <desc>Created with Sketch.</desc>
    <defs></defs>
    <g id="新股申购" stroke="none" stroke-width="1" fill="none" fill-rule="evenodd">
        <g id="设置缴款优先级" transform="translate(-91.000000, -642.000000)" fill="#FFFFFF" fill-rule="nonzero">
            <g id="广播" transform="translate(91.000000, 642.000000)">
                <path d="M9.20598086,0.0008623125 L9.37663169,0.0008623125 C10.032716,0.100003234 9.83980231,1.09183427 9.83980231,1.9556493 L9.83980231,12.0714758 C9.83980231,12.9209783 10.0221302,13.8689811 9.42533562,13.977372 C9.06284681,14.0431378 8.75353633,13.7428557 8.49888524,13.5619802 C6.9207158,12.4409769 5.45571597,11.4210989 3.86671132,10.2877362 C3.64224296,10.127642 3.26276079,9.91121947 3.25719505,9.579156 C3.25239326,9.29568642 3.48570129,9.02359187 3.7935307,9.01716998 C4.05809718,9.01165434 4.2791201,9.24679566 4.47621199,9.38367106 C5.87802455,10.3576895 7.46763723,11.421177 8.81585053,12.3646485 L8.81585053,1.66247655 C7.42814713,2.6026668 6.03199382,3.67837308 4.59808093,4.74115744 C4.38924958,4.89600164 4.14518428,5.10829914 3.96425947,5.15658053 C3.53887961,5.27008086 3.00673773,5.18101811 2.5258566,5.18101811 L1.08739137,5.18101811 C1.03051814,6.32942772 1.07930002,7.58374391 1.06305498,8.77287237 C1.71106357,8.74729417 2.28698285,8.72605973 2.3064083,9.28598325 C2.31128805,9.42706178 2.23835687,9.69196881 2.01381056,9.7990785 C1.72005914,9.93925078 0.418554212,9.88507875 0.23410602,9.75018773 C0.117958684,9.66531248 0.0623015122,9.50703077 0.0146733096,9.35923347 L0.014673294,4.61892272 C0.111083374,3.93762384 1.24499315,4.13026503 1.96510663,4.13026503 C2.43247103,4.13026503 3.19930847,4.23829659 3.62294223,4.13026503 C3.81774236,4.08053052 4.08748479,3.78507652 4.30554556,3.61709166 C5.51045332,2.68935456 6.60906679,1.90828977 7.76759356,1.02706844 C8.17741436,0.715317531 8.75629579,0.196816 9.20598086,0.0008623125 Z" id="Shape"></path>
                <path d="M13.9845004,3.49495067 L13.9845004,3.66606055 C13.7893105,4.07932737 13.3201065,4.15456198 12.8142342,4.35018755 C12.4722466,4.48242231 12.1452723,4.71440736 11.8146344,4.66781348 C11.591538,4.63642277 11.3901743,4.40520334 11.4001677,4.1791558 C11.4177691,3.7809515 11.9914589,3.66474805 12.3509856,3.51938823 C12.9166777,3.29066881 13.7400765,2.78574545 13.9844225,3.49495066 L13.9845004,3.49495067 Z" id="Shape"></path>
                <path d="M13.9845004,6.64703803 L13.9845004,6.84250736 C13.8625535,7.38091519 13.265525,7.25793045 12.6435834,7.25793045 C12.2851324,7.25793045 11.9468708,7.31475875 11.7171642,7.23349287 C11.2167017,7.05633611 11.3674749,6.35219342 11.7415629,6.23164619 C11.9449221,6.16611475 12.2677805,6.20720861 12.6679821,6.20720861 C13.3547948,6.20720861 13.8799834,6.11531772 13.9845004,6.64703803 Z" id="Shape"></path>
                <path d="M13.9845004,10.141142 L13.9845004,10.3855021 C13.7960144,11.2910204 12.8782789,10.6279716 12.4241506,10.3855021 C12.0765973,10.1999547 11.6225625,10.0687981 11.4733327,9.75018775 C11.2852208,9.34878033 11.5122771,8.83696633 11.8877994,8.82174753 C12.1860408,8.80960688 12.6027369,9.11340464 12.8386173,9.2370925 C13.357679,9.50939017 13.8014086,9.63017177 13.9845004,10.141142 Z" id="Shape"></path>
            </g>
        </g>
    </g>
</svg>